<svg xmlns="http://www.w3.org/2000/svg" viewBox="0 0 48 48">
  <rect width="48" height="48" rx="8" fill="#b5121b"/>
  <path fill="#fff" d="M24 7 39 15v9c0 8.8-6.2 15.1-15 17-8.8-1.9-15-8.2-15-17v-9L24 7Z"/>
  <path fill="#b5121b" d="M24 13 33 18v5.5c0 5.4-3.7 9.2-9 10.7-5.3-1.5-9-5.3-9-10.7V18l9-5Z"/>
  <path fill="#fff" d="M19 21.2c0-2.8 2.4-4.7 5.8-4.7 2.2 0 4.2.6 5.8 1.7l-2.1 3.2c-1.2-.7-2.4-1.1-3.7-1.1-1.1 0-1.7.3-1.7.9 0 1.8 8.1.6 8.1 6.4 0 2.9-2.5 4.8-6.4 4.8-2.6 0-5.1-.8-6.8-2.1l2.1-3.3c1.6 1.1 3.2 1.6 4.8 1.6 1.3 0 2-.3 2-.9 0-1.9-7.9-.5-7.9-6.5Z"/>
</svg>
